<?xml version="1.0" encoding="UTF-8"?><svg id="Layer_1" xmlns="http://www.w3.org/2000/svg" viewBox="0 0 70.87 70.87"><defs><style>.cls-1{fill:none;}.cls-2{fill:#fff;}</style></defs><rect class="cls-1" width="70.87" height="70.87"/><path class="cls-2" d="M70.85,67.95h-15.66v-22.86c0-5.98-2.44-10.07-7.83-10.07-4.12,0-6.41,2.76-7.47,5.41-.41,.96-.34,2.28-.34,3.61v23.9h-15.51s.2-40.5,0-44.18h15.51v6.93c.92-3.03,5.87-7.35,13.78-7.35,9.8,0,17.52,6.36,17.52,20.04v24.56ZM8.35,18.24h-.1C3.26,18.24,.02,14.86,.02,10.59S3.36,2.92,8.45,2.92s8.22,3.3,8.32,7.65c0,4.28-3.23,7.67-8.42,7.67m7.25,49.71H1.8V23.76H15.61v44.19Z"/></svg>