<?xml version="1.0" encoding="UTF-8"?><svg id="Layer_1" xmlns="http://www.w3.org/2000/svg" viewBox="0 0 154.4 154.4"><path d="M77.2,65.62c-6.4,0-11.58,5.18-11.58,11.58s5.18,11.57,11.58,11.57,11.58-5.18,11.58-11.57-5.19-11.58-11.58-11.58"/><path d="M77.2,95.04c-9.85,0-17.84-7.99-17.84-17.84s7.99-17.84,17.84-17.84,17.84,7.99,17.84,17.84-7.99,17.84-17.84,17.84m-22.71-36.38c0-2.3,1.86-4.17,4.17-4.17s4.17,1.87,4.17,4.17-1.86,4.17-4.17,4.17-4.17-1.86-4.17-4.17m49.79-1.94c-.63-1.62-1.38-2.78-2.6-3.99s-2.38-1.97-3.99-2.6c-1.23-.48-3.07-1.04-6.45-1.2-3.66-.16-4.76-.2-14.03-.2s-10.38,.04-14.03,.2c-3.4,.15-5.23,.72-6.45,1.2-1.62,.63-2.78,1.38-3.99,2.6-1.22,1.22-1.97,2.37-2.6,3.99-.48,1.23-1.04,3.07-1.2,6.45-.17,3.66-.2,4.76-.2,14.03s.03,10.38,.2,14.03c.15,3.39,.72,5.23,1.2,6.45,.63,1.62,1.38,2.78,2.6,3.99,1.22,1.22,2.37,1.97,3.99,2.6,1.23,.48,3.06,1.04,6.45,1.2,3.66,.16,4.76,.2,14.03,.2s10.38-.04,14.03-.2c3.39-.15,5.23-.72,6.45-1.2,1.62-.63,2.78-1.38,3.99-2.6s1.97-2.38,2.6-3.99c.47-1.23,1.04-3.07,1.2-6.45,.16-3.66,.2-4.76,.2-14.03s-.04-10.38-.2-14.03c-.15-3.39-.73-5.23-1.2-6.45"/><path d="M111.73,91.52c-.17,3.69-.76,6.22-1.62,8.43-.89,2.28-2.08,4.22-4.01,6.15-1.92,1.93-3.87,3.12-6.15,4.01-2.22,.85-4.74,1.44-8.43,1.62-3.7,.16-4.89,.21-14.32,.21s-10.62-.05-14.32-.21c-3.69-.17-6.22-.76-8.43-1.62-2.28-.89-4.22-2.08-6.15-4.01-1.93-1.92-3.12-3.87-4.01-6.15-.86-2.22-1.44-4.74-1.62-8.43-.16-3.7-.21-4.89-.21-14.32s.05-10.62,.21-14.32c.17-3.69,.75-6.22,1.62-8.43,.89-2.28,2.08-4.22,4.01-6.15s3.87-3.11,6.15-4c2.22-.86,4.74-1.44,8.43-1.62,3.7-.16,4.89-.21,14.32-.21s10.62,.05,14.32,.21c3.69,.17,6.22,.75,8.43,1.62,2.28,.89,4.22,2.08,6.15,4,1.93,1.93,3.12,3.88,4.01,6.15,.85,2.22,1.44,4.74,1.62,8.43,.16,3.7,.21,4.89,.21,14.32s-.05,10.62-.21,14.32M77.2,0C34.56,0,0,34.56,0,77.2s34.56,77.2,77.2,77.2,77.2-34.57,77.2-77.2S119.84,0,77.2,0"/></svg>