<?xml version="1.0" encoding="UTF-8"?><svg id="Layer_1" xmlns="http://www.w3.org/2000/svg" viewBox="0 0 154.4 154.4"><path d="M115.8,112.64h-17.07v-24.92c0-6.52-2.66-10.98-8.53-10.98-4.49,0-6.98,3-8.14,5.9-.44,1.04-.37,2.49-.37,3.94v26.05h-16.9s.22-44.14,0-48.15h16.9v7.55c1-3.3,6.4-8.02,15.02-8.02,10.68,0,19.09,6.93,19.09,21.84v26.77ZM47.69,58.46h-.11c-5.45,0-8.98-3.69-8.98-8.34s3.64-8.36,9.2-8.36,8.96,3.59,9.07,8.34c0,4.67-3.52,8.36-9.18,8.36m7.91,54.18h-15.05v-48.16h15.05v48.16ZM77.2,0C34.56,0,0,34.56,0,77.2s34.56,77.2,77.2,77.2,77.2-34.57,77.2-77.2S119.84,0,77.2,0"/></svg>