<?xml version="1.0" encoding="UTF-8"?><svg id="Layer_1" xmlns="http://www.w3.org/2000/svg" viewBox="0 0 406.03 62.36"><defs><style>.cls-1{fill:#040407;}</style></defs><path class="cls-1" d="M51.61,40.01c0,8.83-8.38,14.96-24.24,14.96-11.32,0-20.53-3.2-27.37-9.02l5.88-6.97c5.5,5.05,12.6,7.42,21.74,7.42s13.69-1.73,13.69-5.44-4.6-4.73-14.9-5.63c-12.79-1.09-24.68-3.9-24.68-13.49S11.7,7.39,25.52,7.39c9.78,0,18.23,2.43,23.92,6.84l-5.63,7.1c-4.92-3.77-11-5.31-18.29-5.37-6.08-.06-13.49,1.02-13.49,5.12,0,3.84,6.39,4.22,15.28,4.92,14.26,1.15,24.3,4.16,24.3,14Z"/><path class="cls-1" d="M109.44,8.8v23.66c0,13.43-8.89,22.51-25.13,22.51s-25.13-9.08-25.13-22.51V8.8h10.23V31.69c0,8.95,5.24,14.33,14.9,14.33s14.9-5.37,14.9-14.33V8.8h10.23Z"/><path class="cls-1" d="M165.07,15.77l-33.32,29.23h34.34v8.57h-49.56v-6.97l33.32-29.22h-32.17V8.8h47.39v6.97Z"/><path class="cls-1" d="M175.12,53.56V8.8h10.23V53.56h-10.23Z"/><path class="cls-1" d="M240.74,44.99v8.57h-46.11V8.8h45.47v8.57h-35.3v9.21h29.48v8.57h-29.48v9.85h35.94Z"/><path class="cls-1" d="M249.8,49.02c0-3,2.49-5.37,6.08-5.37s6.01,2.37,6.01,5.37-2.49,5.31-6.01,5.31-6.08-2.24-6.08-5.31Z"/><path class="cls-1" d="M311.58,53.56l-17.27-21.04-11.7,9.91v11.13h-10.23V8.8h10.23V31.5l26.6-22.7h13.43l-20.85,17.65,22.06,27.12h-12.28Z"/><path class="cls-1" d="M399.15,20.9c-1.2-2.88-.28-7.24-1.29-10.24l-20.52,20.52,20.52,20.52c1.01-3,.09-7.35,1.29-10.24,1.43-3.45,6.87-6.31,6.87-10.28s-5.44-6.83-6.87-10.28Z"/><path class="cls-1" d="M376.46,26.03l18.38-18.38c-3-1.01-7.35-.09-10.24-1.29-2.8-1.16-5.22-4.97-8.15-6.36V26.03Z"/><path class="cls-1" d="M372.2,29.05V0c-2.93,1.39-5.34,5.2-8.15,6.36-3.58,1.48-9.43-.29-12.13,2.41-2.7,2.7-.93,8.55-2.41,12.13-1.16,2.8-4.97,5.22-6.36,8.15h29.05Z"/><path class="cls-1" d="M376.46,36.33v26.03c2.93-1.39,5.35-5.2,8.15-6.36,2.88-1.2,7.24-.28,10.24-1.29l-18.38-18.38Z"/><path class="cls-1" d="M372.2,33.32h-29.05c1.39,2.93,5.2,5.34,6.36,8.15,1.48,3.58-.29,9.43,2.41,12.13,2.7,2.7,8.55,.93,12.13,2.41,2.8,1.16,5.21,4.97,8.15,6.36v-29.05Z"/></svg>